<?xml version="1.0" encoding="us-ascii" standalone="no"?><svg xmlns="http://www.w3.org/2000/svg" xmlns:xlink="http://www.w3.org/1999/xlink" contentStyleType="text/css" height="1282px" preserveAspectRatio="none" style="width:1539px;height:1282px;background:#FFFFFF;" version="1.1" viewBox="0 0 1539 1282" width="1539px" zoomAndPan="magnify"><defs/><g><!--class Deal--><g id="elem_Deal"><rect codeLine="1" fill="#F1F1F1" height="553.2031" id="Deal" rx="2.5" ry="2.5" style="stroke:#181818;stroke-width:0.5;" width="1125" x="7" y="180"/><ellipse cx="549.25" cy="196" fill="#ADD1B2" rx="11" ry="11" style="stroke:#181818;stroke-width:1.0;"/><path d="M551.5938,191.6719 C550.6563,191.2344 550.0625,191.0938 549.1875,191.0938 C546.5625,191.0938 544.5625,193.1719 544.5625,195.8906 L544.5625,197.0156 C544.5625,199.5938 546.6719,201.4844 549.5625,201.4844 C550.7813,201.4844 551.9375,201.1875 552.6875,200.6406 C553.2656,200.2344 553.5938,199.7813 553.5938,199.3906 C553.5938,198.9375 553.2031,198.5469 552.7344,198.5469 C552.5156,198.5469 552.3125,198.625 552.125,198.8125 C551.6719,199.2969 551.6719,199.2969 551.4844,199.3906 C551.0625,199.6563 550.375,199.7813 549.6094,199.7813 C547.5625,199.7813 546.2656,198.6875 546.2656,196.9844 L546.2656,195.8906 C546.2656,194.1094 547.5156,192.7969 549.25,192.7969 C549.8281,192.7969 550.4375,192.9531 550.9063,193.2031 C551.3906,193.4844 551.5625,193.7031 551.6563,194.1094 C551.7188,194.5156 551.75,194.6406 551.8906,194.7656 C552.0313,194.9063 552.2656,195.0156 552.4844,195.0156 C552.75,195.0156 553.0156,194.875 553.1875,194.6563 C553.2969,194.5 553.3281,194.3125 553.3281,193.8906 L553.3281,192.4688 C553.3281,192.0313 553.3125,191.9063 553.2188,191.75 C553.0625,191.4844 552.7813,191.3438 552.4844,191.3438 C552.1875,191.3438 551.9844,191.4375 551.7656,191.75 L551.5938,191.6719 Z " fill="#000000"/><text fill="#000000" font-family="sans-serif" font-size="14" lengthAdjust="spacing" textLength="32" x="569.75" y="200.8467">Deal</text><line style="stroke:#181818;stroke-width:0.5;" x1="8" x2="1131" y1="212" y2="212"/><rect fill="none" height="6" style="stroke:#C82930;stroke-width:1.0;" width="6" x="15" y="222.6484"/><text fill="#000000" font-family="sans-serif" font-size="14" lengthAdjust="spacing" textLength="107" x="27" y="228.9951">number: string</text><rect fill="none" height="6" style="stroke:#C82930;stroke-width:1.0;" width="6" x="15" y="238.9453"/><text fill="#000000" font-family="sans-serif" font-size="14" lengthAdjust="spacing" textLength="93" x="27" y="245.292">agent: string</text><rect fill="none" height="6" style="stroke:#C82930;stroke-width:1.0;" width="6" x="15" y="255.2422"/><text fill="#000000" font-family="sans-serif" font-size="14" lengthAdjust="spacing" textLength="188" x="27" y="261.5889">lenders: vector&lt;Lender*&gt;</text><rect fill="none" height="6" style="stroke:#C82930;stroke-width:1.0;" width="6" x="15" y="271.5391"/><text fill="#000000" font-family="sans-serif" font-size="14" lengthAdjust="spacing" textLength="148" x="27" y="277.8857">borrower: Borrower*</text><rect fill="none" height="6" style="stroke:#C82930;stroke-width:1.0;" width="6" x="15" y="287.8359"/><text fill="#000000" font-family="sans-serif" font-size="14" lengthAdjust="spacing" textLength="113" x="27" y="294.1826">amount: double</text><rect fill="none" height="6" style="stroke:#C82930;stroke-width:1.0;" width="6" x="15" y="304.1328"/><text fill="#000000" font-family="sans-serif" font-size="14" lengthAdjust="spacing" textLength="113" x="27" y="310.4795">currency: string</text><rect fill="none" height="6" style="stroke:#C82930;stroke-width:1.0;" width="6" x="15" y="320.4297"/><text fill="#000000" font-family="sans-serif" font-size="14" lengthAdjust="spacing" textLength="126" x="27" y="326.7764">start_date: string</text><rect fill="none" height="6" style="stroke:#C82930;stroke-width:1.0;" width="6" x="15" y="336.7266"/><text fill="#000000" font-family="sans-serif" font-size="14" lengthAdjust="spacing" textLength="118" x="27" y="343.0732">end_date: string</text><rect fill="none" height="6" style="stroke:#C82930;stroke-width:1.0;" width="6" x="15" y="353.0234"/><text fill="#000000" font-family="sans-serif" font-size="14" lengthAdjust="spacing" textLength="95" x="27" y="359.3701">status: string</text><rect fill="none" height="6" style="stroke:#C82930;stroke-width:1.0;" width="6" x="15" y="369.3203"/><text fill="#000000" font-family="sans-serif" font-size="14" lengthAdjust="spacing" textLength="197" x="27" y="375.667">facilities: vector&lt;Facility*&gt;</text><line style="stroke:#181818;stroke-width:0.5;" x1="8" x2="1131" y1="382.9688" y2="382.9688"/><ellipse cx="18" cy="396.6172" fill="#84BE84" rx="3" ry="3" style="stroke:#038048;stroke-width:1.0;"/><text fill="#000000" font-family="sans-serif" font-size="14" lengthAdjust="spacing" textLength="1099" x="27" y="399.9639">Deal(num: string, ag: string, lend: vector&lt;Lender*&gt;, bor: Borrower*, amt: double, cur: string, start: string, end: string, stat: string, fac: vector&lt;Facility*&gt;)</text><ellipse cx="18" cy="412.9141" fill="#84BE84" rx="3" ry="3" style="stroke:#038048;stroke-width:1.0;"/><text fill="#000000" font-family="sans-serif" font-size="14" lengthAdjust="spacing" textLength="143" x="27" y="416.2607">getNumber(): string</text><ellipse cx="18" cy="429.2109" fill="#84BE84" rx="3" ry="3" style="stroke:#038048;stroke-width:1.0;"/><text fill="#000000" font-family="sans-serif" font-size="14" lengthAdjust="spacing" textLength="211" x="27" y="432.5576">setNumber(num: string): void</text><ellipse cx="18" cy="445.5078" fill="#84BE84" rx="3" ry="3" style="stroke:#038048;stroke-width:1.0;"/><text fill="#000000" font-family="sans-serif" font-size="14" lengthAdjust="spacing" textLength="130" x="27" y="448.8545">getAgent(): string</text><ellipse cx="18" cy="461.8047" fill="#84BE84" rx="3" ry="3" style="stroke:#038048;stroke-width:1.0;"/><text fill="#000000" font-family="sans-serif" font-size="14" lengthAdjust="spacing" textLength="184" x="27" y="465.1514">setAgent(ag: string): void</text><ellipse cx="18" cy="478.1016" fill="#84BE84" rx="3" ry="3" style="stroke:#038048;stroke-width:1.0;"/><text fill="#000000" font-family="sans-serif" font-size="14" lengthAdjust="spacing" textLength="227" x="27" y="481.4482">getLenders(): vector&lt;Lender*&gt;</text><ellipse cx="18" cy="494.3984" fill="#84BE84" rx="3" ry="3" style="stroke:#038048;stroke-width:1.0;"/><text fill="#000000" font-family="sans-serif" font-size="14" lengthAdjust="spacing" textLength="295" x="27" y="497.7451">setLenders(lend: vector&lt;Lender*&gt;): void</text><ellipse cx="18" cy="510.6953" fill="#84BE84" rx="3" ry="3" style="stroke:#038048;stroke-width:1.0;"/><text fill="#000000" font-family="sans-serif" font-size="14" lengthAdjust="spacing" textLength="183" x="27" y="514.042">getBorrower(): Borrower*</text><ellipse cx="18" cy="526.9922" fill="#84BE84" rx="3" ry="3" style="stroke:#038048;stroke-width:1.0;"/><text fill="#000000" font-family="sans-serif" font-size="14" lengthAdjust="spacing" textLength="245" x="27" y="530.3389">setBorrower(bor: Borrower*): void</text><ellipse cx="18" cy="543.2891" fill="#84BE84" rx="3" ry="3" style="stroke:#038048;stroke-width:1.0;"/><text fill="#000000" font-family="sans-serif" font-size="14" lengthAdjust="spacing" textLength="150" x="27" y="546.6357">getAmount(): double</text><ellipse cx="18" cy="559.5859" fill="#84BE84" rx="3" ry="3" style="stroke:#038048;stroke-width:1.0;"/><text fill="#000000" font-family="sans-serif" font-size="14" lengthAdjust="spacing" textLength="216" x="27" y="562.9326">setAmount(amt: double): void</text><ellipse cx="18" cy="575.8828" fill="#84BE84" rx="3" ry="3" style="stroke:#038048;stroke-width:1.0;"/><text fill="#000000" font-family="sans-serif" font-size="14" lengthAdjust="spacing" textLength="150" x="27" y="579.2295">getCurrency(): string</text><ellipse cx="18" cy="592.1797" fill="#84BE84" rx="3" ry="3" style="stroke:#038048;stroke-width:1.0;"/><text fill="#000000" font-family="sans-serif" font-size="14" lengthAdjust="spacing" textLength="209" x="27" y="595.5264">setCurrency(cur: string): void</text><ellipse cx="18" cy="608.4766" fill="#84BE84" rx="3" ry="3" style="stroke:#038048;stroke-width:1.0;"/><text fill="#000000" font-family="sans-serif" font-size="14" lengthAdjust="spacing" textLength="158" x="27" y="611.8232">getStartDate(): string</text><ellipse cx="18" cy="624.7734" fill="#84BE84" rx="3" ry="3" style="stroke:#038048;stroke-width:1.0;"/><text fill="#000000" font-family="sans-serif" font-size="14" lengthAdjust="spacing" textLength="230" x="27" y="628.1201">setStartDate(start: string): void</text><ellipse cx="18" cy="641.0703" fill="#84BE84" rx="3" ry="3" style="stroke:#038048;stroke-width:1.0;"/><text fill="#000000" font-family="sans-serif" font-size="14" lengthAdjust="spacing" textLength="148" x="27" y="644.417">getEndDate(): string</text><ellipse cx="18" cy="657.3672" fill="#84BE84" rx="3" ry="3" style="stroke:#038048;stroke-width:1.0;"/><text fill="#000000" font-family="sans-serif" font-size="14" lengthAdjust="spacing" textLength="212" x="27" y="660.7139">setEndDate(end: string): void</text><ellipse cx="18" cy="673.6641" fill="#84BE84" rx="3" ry="3" style="stroke:#038048;stroke-width:1.0;"/><text fill="#000000" font-family="sans-serif" font-size="14" lengthAdjust="spacing" textLength="132" x="27" y="677.0107">getStatus(): string</text><ellipse cx="18" cy="689.9609" fill="#84BE84" rx="3" ry="3" style="stroke:#038048;stroke-width:1.0;"/><text fill="#000000" font-family="sans-serif" font-size="14" lengthAdjust="spacing" textLength="198" x="27" y="693.3076">setStatus(stat: string): void</text><ellipse cx="18" cy="706.2578" fill="#84BE84" rx="3" ry="3" style="stroke:#038048;stroke-width:1.0;"/><text fill="#000000" font-family="sans-serif" font-size="14" lengthAdjust="spacing" textLength="234" x="27" y="709.6045">getFacilities(): vector&lt;Facility*&gt;</text><ellipse cx="18" cy="722.5547" fill="#84BE84" rx="3" ry="3" style="stroke:#038048;stroke-width:1.0;"/><text fill="#000000" font-family="sans-serif" font-size="14" lengthAdjust="spacing" textLength="293" x="27" y="725.9014">setFacilities(fac: vector&lt;Facility*&gt;): void</text></g><!--class Facility--><g id="elem_Facility"><rect codeLine="35" fill="#F1F1F1" height="308.75" id="Facility" rx="2.5" ry="2.5" style="stroke:#181818;stroke-width:0.5;" width="609" x="857" y="793"/><ellipse cx="1131.75" cy="809" fill="#ADD1B2" rx="11" ry="11" style="stroke:#181818;stroke-width:1.0;"/><path d="M1134.0938,804.6719 C1133.1563,804.2344 1132.5625,804.0938 1131.6875,804.0938 C1129.0625,804.0938 1127.0625,806.1719 1127.0625,808.8906 L1127.0625,810.0156 C1127.0625,812.5938 1129.1719,814.4844 1132.0625,814.4844 C1133.2813,814.4844 1134.4375,814.1875 1135.1875,813.6406 C1135.7656,813.2344 1136.0938,812.7813 1136.0938,812.3906 C1136.0938,811.9375 1135.7031,811.5469 1135.2344,811.5469 C1135.0156,811.5469 1134.8125,811.625 1134.625,811.8125 C1134.1719,812.2969 1134.1719,812.2969 1133.9844,812.3906 C1133.5625,812.6563 1132.875,812.7813 1132.1094,812.7813 C1130.0625,812.7813 1128.7656,811.6875 1128.7656,809.9844 L1128.7656,808.8906 C1128.7656,807.1094 1130.0156,805.7969 1131.75,805.7969 C1132.3281,805.7969 1132.9375,805.9531 1133.4063,806.2031 C1133.8906,806.4844 1134.0625,806.7031 1134.1563,807.1094 C1134.2188,807.5156 1134.25,807.6406 1134.3906,807.7656 C1134.5313,807.9063 1134.7656,808.0156 1134.9844,808.0156 C1135.25,808.0156 1135.5156,807.875 1135.6875,807.6563 C1135.7969,807.5 1135.8281,807.3125 1135.8281,806.8906 L1135.8281,805.4688 C1135.8281,805.0313 1135.8125,804.9063 1135.7188,804.75 C1135.5625,804.4844 1135.2813,804.3438 1134.9844,804.3438 C1134.6875,804.3438 1134.4844,804.4375 1134.2656,804.75 L1134.0938,804.6719 Z " fill="#000000"/><text fill="#000000" font-family="sans-serif" font-size="14" lengthAdjust="spacing" textLength="51" x="1152.25" y="813.8467">Facility</text><line style="stroke:#181818;stroke-width:0.5;" x1="858" x2="1465" y1="825" y2="825"/><rect fill="none" height="6" style="stroke:#C82930;stroke-width:1.0;" width="6" x="865" y="835.6484"/><text fill="#000000" font-family="sans-serif" font-size="14" lengthAdjust="spacing" textLength="126" x="877" y="841.9951">start_date: string</text><rect fill="none" height="6" style="stroke:#C82930;stroke-width:1.0;" width="6" x="865" y="851.9453"/><text fill="#000000" font-family="sans-serif" font-size="14" lengthAdjust="spacing" textLength="118" x="877" y="858.292">end_date: string</text><rect fill="none" height="6" style="stroke:#C82930;stroke-width:1.0;" width="6" x="865" y="868.2422"/><text fill="#000000" font-family="sans-serif" font-size="14" lengthAdjust="spacing" textLength="113" x="877" y="874.5889">amount: double</text><rect fill="none" height="6" style="stroke:#C82930;stroke-width:1.0;" width="6" x="865" y="884.5391"/><text fill="#000000" font-family="sans-serif" font-size="14" lengthAdjust="spacing" textLength="113" x="877" y="890.8857">currency: string</text><rect fill="none" height="6" style="stroke:#C82930;stroke-width:1.0;" width="6" x="865" y="900.8359"/><text fill="#000000" font-family="sans-serif" font-size="14" lengthAdjust="spacing" textLength="188" x="877" y="907.1826">lenders: vector&lt;Lender*&gt;</text><line style="stroke:#181818;stroke-width:0.5;" x1="858" x2="1465" y1="914.4844" y2="914.4844"/><ellipse cx="868" cy="928.1328" fill="#84BE84" rx="3" ry="3" style="stroke:#038048;stroke-width:1.0;"/><text fill="#000000" font-family="sans-serif" font-size="14" lengthAdjust="spacing" textLength="583" x="877" y="931.4795">Facility(start: string, end: string, amt: double, cur: string, lend: vector&lt;Lender*&gt;)</text><ellipse cx="868" cy="944.4297" fill="#84BE84" rx="3" ry="3" style="stroke:#038048;stroke-width:1.0;"/><text fill="#000000" font-family="sans-serif" font-size="14" lengthAdjust="spacing" textLength="158" x="877" y="947.7764">getStartDate(): string</text><ellipse cx="868" cy="960.7266" fill="#84BE84" rx="3" ry="3" style="stroke:#038048;stroke-width:1.0;"/><text fill="#000000" font-family="sans-serif" font-size="14" lengthAdjust="spacing" textLength="230" x="877" y="964.0732">setStartDate(start: string): void</text><ellipse cx="868" cy="977.0234" fill="#84BE84" rx="3" ry="3" style="stroke:#038048;stroke-width:1.0;"/><text fill="#000000" font-family="sans-serif" font-size="14" lengthAdjust="spacing" textLength="148" x="877" y="980.3701">getEndDate(): string</text><ellipse cx="868" cy="993.3203" fill="#84BE84" rx="3" ry="3" style="stroke:#038048;stroke-width:1.0;"/><text fill="#000000" font-family="sans-serif" font-size="14" lengthAdjust="spacing" textLength="212" x="877" y="996.667">setEndDate(end: string): void</text><ellipse cx="868" cy="1009.6172" fill="#84BE84" rx="3" ry="3" style="stroke:#038048;stroke-width:1.0;"/><text fill="#000000" font-family="sans-serif" font-size="14" lengthAdjust="spacing" textLength="150" x="877" y="1012.9639">getAmount(): double</text><ellipse cx="868" cy="1025.9141" fill="#84BE84" rx="3" ry="3" style="stroke:#038048;stroke-width:1.0;"/><text fill="#000000" font-family="sans-serif" font-size="14" lengthAdjust="spacing" textLength="216" x="877" y="1029.2607">setAmount(amt: double): void</text><ellipse cx="868" cy="1042.2109" fill="#84BE84" rx="3" ry="3" style="stroke:#038048;stroke-width:1.0;"/><text fill="#000000" font-family="sans-serif" font-size="14" lengthAdjust="spacing" textLength="150" x="877" y="1045.5576">getCurrency(): string</text><ellipse cx="868" cy="1058.5078" fill="#84BE84" rx="3" ry="3" style="stroke:#038048;stroke-width:1.0;"/><text fill="#000000" font-family="sans-serif" font-size="14" lengthAdjust="spacing" textLength="209" x="877" y="1061.8545">setCurrency(cur: string): void</text><ellipse cx="868" cy="1074.8047" fill="#84BE84" rx="3" ry="3" style="stroke:#038048;stroke-width:1.0;"/><text fill="#000000" font-family="sans-serif" font-size="14" lengthAdjust="spacing" textLength="227" x="877" y="1078.1514">getLenders(): vector&lt;Lender*&gt;</text><ellipse cx="868" cy="1091.1016" fill="#84BE84" rx="3" ry="3" style="stroke:#038048;stroke-width:1.0;"/><text fill="#000000" font-family="sans-serif" font-size="14" lengthAdjust="spacing" textLength="295" x="877" y="1094.4482">setLenders(lend: vector&lt;Lender*&gt;): void</text></g><!--class Borrower--><g id="elem_Borrower"><rect codeLine="54" fill="#F1F1F1" height="113.1875" id="Borrower" rx="2.5" ry="2.5" style="stroke:#181818;stroke-width:0.5;" width="199" x="623" y="891"/><ellipse cx="685.25" cy="907" fill="#ADD1B2" rx="11" ry="11" style="stroke:#181818;stroke-width:1.0;"/><path d="M687.5938,902.6719 C686.6563,902.2344 686.0625,902.0938 685.1875,902.0938 C682.5625,902.0938 680.5625,904.1719 680.5625,906.8906 L680.5625,908.0156 C680.5625,910.5938 682.6719,912.4844 685.5625,912.4844 C686.7813,912.4844 687.9375,912.1875 688.6875,911.6406 C689.2656,911.2344 689.5938,910.7813 689.5938,910.3906 C689.5938,909.9375 689.2031,909.5469 688.7344,909.5469 C688.5156,909.5469 688.3125,909.625 688.125,909.8125 C687.6719,910.2969 687.6719,910.2969 687.4844,910.3906 C687.0625,910.6563 686.375,910.7813 685.6094,910.7813 C683.5625,910.7813 682.2656,909.6875 682.2656,907.9844 L682.2656,906.8906 C682.2656,905.1094 683.5156,903.7969 685.25,903.7969 C685.8281,903.7969 686.4375,903.9531 686.9063,904.2031 C687.3906,904.4844 687.5625,904.7031 687.6563,905.1094 C687.7188,905.5156 687.75,905.6406 687.8906,905.7656 C688.0313,905.9063 688.2656,906.0156 688.4844,906.0156 C688.75,906.0156 689.0156,905.875 689.1875,905.6563 C689.2969,905.5 689.3281,905.3125 689.3281,904.8906 L689.3281,903.4688 C689.3281,903.0313 689.3125,902.9063 689.2188,902.75 C689.0625,902.4844 688.7813,902.3438 688.4844,902.3438 C688.1875,902.3438 687.9844,902.4375 687.7656,902.75 L687.5938,902.6719 Z " fill="#000000"/><text fill="#000000" font-family="sans-serif" font-size="14" lengthAdjust="spacing" textLength="66" x="705.75" y="911.8467">Borrower</text><line style="stroke:#181818;stroke-width:0.5;" x1="624" x2="821" y1="923" y2="923"/><rect fill="none" height="6" style="stroke:#C82930;stroke-width:1.0;" width="6" x="631" y="933.6484"/><text fill="#000000" font-family="sans-serif" font-size="14" lengthAdjust="spacing" textLength="91" x="643" y="939.9951">name: string</text><line style="stroke:#181818;stroke-width:0.5;" x1="624" x2="821" y1="947.2969" y2="947.2969"/><ellipse cx="634" cy="960.9453" fill="#84BE84" rx="3" ry="3" style="stroke:#038048;stroke-width:1.0;"/><text fill="#000000" font-family="sans-serif" font-size="14" lengthAdjust="spacing" textLength="136" x="643" y="964.292">Borrower(n: string)</text><ellipse cx="634" cy="977.2422" fill="#84BE84" rx="3" ry="3" style="stroke:#038048;stroke-width:1.0;"/><text fill="#000000" font-family="sans-serif" font-size="14" lengthAdjust="spacing" textLength="127" x="643" y="980.5889">getName(): string</text><ellipse cx="634" cy="993.5391" fill="#84BE84" rx="3" ry="3" style="stroke:#038048;stroke-width:1.0;"/><text fill="#000000" font-family="sans-serif" font-size="14" lengthAdjust="spacing" textLength="173" x="643" y="996.8857">setName(n: string): void</text></g><!--class Lender--><g id="elem_Lender"><rect codeLine="61" fill="#F1F1F1" height="113.1875" id="Lender" rx="2.5" ry="2.5" style="stroke:#181818;stroke-width:0.5;" width="199" x="766" y="1162"/><ellipse cx="836.25" cy="1178" fill="#ADD1B2" rx="11" ry="11" style="stroke:#181818;stroke-width:1.0;"/><path d="M838.5938,1173.6719 C837.6563,1173.2344 837.0625,1173.0938 836.1875,1173.0938 C833.5625,1173.0938 831.5625,1175.1719 831.5625,1177.8906 L831.5625,1179.0156 C831.5625,1181.5938 833.6719,1183.4844 836.5625,1183.4844 C837.7813,1183.4844 838.9375,1183.1875 839.6875,1182.6406 C840.2656,1182.2344 840.5938,1181.7813 840.5938,1181.3906 C840.5938,1180.9375 840.2031,1180.5469 839.7344,1180.5469 C839.5156,1180.5469 839.3125,1180.625 839.125,1180.8125 C838.6719,1181.2969 838.6719,1181.2969 838.4844,1181.3906 C838.0625,1181.6563 837.375,1181.7813 836.6094,1181.7813 C834.5625,1181.7813 833.2656,1180.6875 833.2656,1178.9844 L833.2656,1177.8906 C833.2656,1176.1094 834.5156,1174.7969 836.25,1174.7969 C836.8281,1174.7969 837.4375,1174.9531 837.9063,1175.2031 C838.3906,1175.4844 838.5625,1175.7031 838.6563,1176.1094 C838.7188,1176.5156 838.75,1176.6406 838.8906,1176.7656 C839.0313,1176.9063 839.2656,1177.0156 839.4844,1177.0156 C839.75,1177.0156 840.0156,1176.875 840.1875,1176.6563 C840.2969,1176.5 840.3281,1176.3125 840.3281,1175.8906 L840.3281,1174.4688 C840.3281,1174.0313 840.3125,1173.9063 840.2188,1173.75 C840.0625,1173.4844 839.7813,1173.3438 839.4844,1173.3438 C839.1875,1173.3438 838.9844,1173.4375 838.7656,1173.75 L838.5938,1173.6719 Z " fill="#000000"/><text fill="#000000" font-family="sans-serif" font-size="14" lengthAdjust="spacing" textLength="50" x="856.75" y="1182.8467">Lender</text><line style="stroke:#181818;stroke-width:0.5;" x1="767" x2="964" y1="1194" y2="1194"/><rect fill="none" height="6" style="stroke:#C82930;stroke-width:1.0;" width="6" x="774" y="1204.6484"/><text fill="#000000" font-family="sans-serif" font-size="14" lengthAdjust="spacing" textLength="91" x="786" y="1210.9951">name: string</text><line style="stroke:#181818;stroke-width:0.5;" x1="767" x2="964" y1="1218.2969" y2="1218.2969"/><ellipse cx="777" cy="1231.9453" fill="#84BE84" rx="3" ry="3" style="stroke:#038048;stroke-width:1.0;"/><text fill="#000000" font-family="sans-serif" font-size="14" lengthAdjust="spacing" textLength="120" x="786" y="1235.292">Lender(n: string)</text><ellipse cx="777" cy="1248.2422" fill="#84BE84" rx="3" ry="3" style="stroke:#038048;stroke-width:1.0;"/><text fill="#000000" font-family="sans-serif" font-size="14" lengthAdjust="spacing" textLength="127" x="786" y="1251.5889">getName(): string</text><ellipse cx="777" cy="1264.5391" fill="#84BE84" rx="3" ry="3" style="stroke:#038048;stroke-width:1.0;"/><text fill="#000000" font-family="sans-serif" font-size="14" lengthAdjust="spacing" textLength="173" x="786" y="1267.8857">setName(n: string): void</text></g><!--class Part--><g id="elem_Part"><rect codeLine="68" fill="#F1F1F1" height="227.2656" id="Part" rx="2.5" ry="2.5" style="stroke:#181818;stroke-width:0.5;" width="365" x="1167" y="343"/><ellipse cx="1330.25" cy="359" fill="#ADD1B2" rx="11" ry="11" style="stroke:#181818;stroke-width:1.0;"/><path d="M1332.5938,354.6719 C1331.6563,354.2344 1331.0625,354.0938 1330.1875,354.0938 C1327.5625,354.0938 1325.5625,356.1719 1325.5625,358.8906 L1325.5625,360.0156 C1325.5625,362.5938 1327.6719,364.4844 1330.5625,364.4844 C1331.7813,364.4844 1332.9375,364.1875 1333.6875,363.6406 C1334.2656,363.2344 1334.5938,362.7813 1334.5938,362.3906 C1334.5938,361.9375 1334.2031,361.5469 1333.7344,361.5469 C1333.5156,361.5469 1333.3125,361.625 1333.125,361.8125 C1332.6719,362.2969 1332.6719,362.2969 1332.4844,362.3906 C1332.0625,362.6563 1331.375,362.7813 1330.6094,362.7813 C1328.5625,362.7813 1327.2656,361.6875 1327.2656,359.9844 L1327.2656,358.8906 C1327.2656,357.1094 1328.5156,355.7969 1330.25,355.7969 C1330.8281,355.7969 1331.4375,355.9531 1331.9063,356.2031 C1332.3906,356.4844 1332.5625,356.7031 1332.6563,357.1094 C1332.7188,357.5156 1332.75,357.6406 1332.8906,357.7656 C1333.0313,357.9063 1333.2656,358.0156 1333.4844,358.0156 C1333.75,358.0156 1334.0156,357.875 1334.1875,357.6563 C1334.2969,357.5 1334.3281,357.3125 1334.3281,356.8906 L1334.3281,355.4688 C1334.3281,355.0313 1334.3125,354.9063 1334.2188,354.75 C1334.0625,354.4844 1333.7813,354.3438 1333.4844,354.3438 C1333.1875,354.3438 1332.9844,354.4375 1332.7656,354.75 L1332.5938,354.6719 Z " fill="#000000"/><text fill="#000000" font-family="sans-serif" font-size="14" lengthAdjust="spacing" textLength="30" x="1350.75" y="363.8467">Part</text><line style="stroke:#181818;stroke-width:0.5;" x1="1168" x2="1531" y1="375" y2="375"/><rect fill="none" height="6" style="stroke:#C82930;stroke-width:1.0;" width="6" x="1175" y="385.6484"/><text fill="#000000" font-family="sans-serif" font-size="14" lengthAdjust="spacing" textLength="113" x="1187" y="391.9951">amount: double</text><rect fill="none" height="6" style="stroke:#C82930;stroke-width:1.0;" width="6" x="1175" y="401.9453"/><text fill="#000000" font-family="sans-serif" font-size="14" lengthAdjust="spacing" textLength="116" x="1187" y="408.292">facility: Facility*</text><rect fill="none" height="6" style="stroke:#C82930;stroke-width:1.0;" width="6" x="1175" y="418.2422"/><text fill="#000000" font-family="sans-serif" font-size="14" lengthAdjust="spacing" textLength="148" x="1187" y="424.5889">borrower: Borrower*</text><line style="stroke:#181818;stroke-width:0.5;" x1="1168" x2="1531" y1="431.8906" y2="431.8906"/><ellipse cx="1178" cy="445.5391" fill="#84BE84" rx="3" ry="3" style="stroke:#038048;stroke-width:1.0;"/><text fill="#000000" font-family="sans-serif" font-size="14" lengthAdjust="spacing" textLength="339" x="1187" y="448.8857">Part(amt: double, fac: Facility*, bor: Borrower*)</text><ellipse cx="1178" cy="461.8359" fill="#84BE84" rx="3" ry="3" style="stroke:#038048;stroke-width:1.0;"/><text fill="#000000" font-family="sans-serif" font-size="14" lengthAdjust="spacing" textLength="150" x="1187" y="465.1826">getAmount(): double</text><ellipse cx="1178" cy="478.1328" fill="#84BE84" rx="3" ry="3" style="stroke:#038048;stroke-width:1.0;"/><text fill="#000000" font-family="sans-serif" font-size="14" lengthAdjust="spacing" textLength="216" x="1187" y="481.4795">setAmount(amt: double): void</text><ellipse cx="1178" cy="494.4297" fill="#84BE84" rx="3" ry="3" style="stroke:#038048;stroke-width:1.0;"/><text fill="#000000" font-family="sans-serif" font-size="14" lengthAdjust="spacing" textLength="153" x="1187" y="497.7764">getFacility(): Facility*</text><ellipse cx="1178" cy="510.7266" fill="#84BE84" rx="3" ry="3" style="stroke:#038048;stroke-width:1.0;"/><text fill="#000000" font-family="sans-serif" font-size="14" lengthAdjust="spacing" textLength="212" x="1187" y="514.0732">setFacility(fac: Facility*): void</text><ellipse cx="1178" cy="527.0234" fill="#84BE84" rx="3" ry="3" style="stroke:#038048;stroke-width:1.0;"/><text fill="#000000" font-family="sans-serif" font-size="14" lengthAdjust="spacing" textLength="183" x="1187" y="530.3701">getBorrower(): Borrower*</text><ellipse cx="1178" cy="543.3203" fill="#84BE84" rx="3" ry="3" style="stroke:#038048;stroke-width:1.0;"/><text fill="#000000" font-family="sans-serif" font-size="14" lengthAdjust="spacing" textLength="245" x="1187" y="546.667">setBorrower(bor: Borrower*): void</text><ellipse cx="1178" cy="559.6172" fill="#84BE84" rx="3" ry="3" style="stroke:#038048;stroke-width:1.0;"/><text fill="#000000" font-family="sans-serif" font-size="14" lengthAdjust="spacing" textLength="203" x="1187" y="562.9639">repay(amount: double): void</text></g><!--class Portfolio--><g id="elem_Portfolio"><rect codeLine="82" fill="#F1F1F1" height="113.1875" id="Portfolio" rx="2.5" ry="2.5" style="stroke:#181818;stroke-width:0.5;" width="288" x="1205.5" y="7"/><ellipse cx="1313.75" cy="23" fill="#ADD1B2" rx="11" ry="11" style="stroke:#181818;stroke-width:1.0;"/><path d="M1316.0938,18.6719 C1315.1563,18.2344 1314.5625,18.0938 1313.6875,18.0938 C1311.0625,18.0938 1309.0625,20.1719 1309.0625,22.8906 L1309.0625,24.0156 C1309.0625,26.5938 1311.1719,28.4844 1314.0625,28.4844 C1315.2813,28.4844 1316.4375,28.1875 1317.1875,27.6406 C1317.7656,27.2344 1318.0938,26.7813 1318.0938,26.3906 C1318.0938,25.9375 1317.7031,25.5469 1317.2344,25.5469 C1317.0156,25.5469 1316.8125,25.625 1316.625,25.8125 C1316.1719,26.2969 1316.1719,26.2969 1315.9844,26.3906 C1315.5625,26.6563 1314.875,26.7813 1314.1094,26.7813 C1312.0625,26.7813 1310.7656,25.6875 1310.7656,23.9844 L1310.7656,22.8906 C1310.7656,21.1094 1312.0156,19.7969 1313.75,19.7969 C1314.3281,19.7969 1314.9375,19.9531 1315.4063,20.2031 C1315.8906,20.4844 1316.0625,20.7031 1316.1563,21.1094 C1316.2188,21.5156 1316.25,21.6406 1316.3906,21.7656 C1316.5313,21.9063 1316.7656,22.0156 1316.9844,22.0156 C1317.25,22.0156 1317.5156,21.875 1317.6875,21.6563 C1317.7969,21.5 1317.8281,21.3125 1317.8281,20.8906 L1317.8281,19.4688 C1317.8281,19.0313 1317.8125,18.9063 1317.7188,18.75 C1317.5625,18.4844 1317.2813,18.3438 1316.9844,18.3438 C1316.6875,18.3438 1316.4844,18.4375 1316.2656,18.75 L1316.0938,18.6719 Z " fill="#000000"/><text fill="#000000" font-family="sans-serif" font-size="14" lengthAdjust="spacing" textLength="63" x="1334.25" y="27.8467">Portfolio</text><line style="stroke:#181818;stroke-width:0.5;" x1="1206.5" x2="1492.5" y1="39" y2="39"/><rect fill="none" height="6" style="stroke:#C82930;stroke-width:1.0;" width="6" x="1213.5" y="49.6484"/><text fill="#000000" font-family="sans-serif" font-size="14" lengthAdjust="spacing" textLength="153" x="1225.5" y="55.9951">parts: vector&lt;Part*&gt;</text><line style="stroke:#181818;stroke-width:0.5;" x1="1206.5" x2="1492.5" y1="63.2969" y2="63.2969"/><ellipse cx="1216.5" cy="76.9453" fill="#84BE84" rx="3" ry="3" style="stroke:#038048;stroke-width:1.0;"/><text fill="#000000" font-family="sans-serif" font-size="14" lengthAdjust="spacing" textLength="226" x="1225.5" y="80.292">Portfolio(parts: vector&lt;Part*&gt;)</text><ellipse cx="1216.5" cy="93.2422" fill="#84BE84" rx="3" ry="3" style="stroke:#038048;stroke-width:1.0;"/><text fill="#000000" font-family="sans-serif" font-size="14" lengthAdjust="spacing" textLength="187" x="1225.5" y="96.5889">getParts(): vector&lt;Part*&gt;</text><ellipse cx="1216.5" cy="109.5391" fill="#84BE84" rx="3" ry="3" style="stroke:#038048;stroke-width:1.0;"/><text fill="#000000" font-family="sans-serif" font-size="14" lengthAdjust="spacing" textLength="262" x="1225.5" y="112.8857">setParts(parts: vector&lt;Part*&gt;): void</text></g><!--link Deal to Lender--><g id="link_Deal_Lender"><path codeLine="89" d="M523.535,733.359 C517.672,856.034 532.515,996.291 605.5,1102 C641.049,1153.489 705.08,1182.302 760.7,1198.2735 " fill="none" id="Deal-to-Lender" style="stroke:#181818;stroke-width:1.0;"/><polygon fill="#181818" points="765.712,1199.6848,758.1337,1193.3944,760.8993,1198.3291,755.9646,1201.0948,765.712,1199.6848" style="stroke:#181818;stroke-width:1.0;"/></g><!--link Deal to Borrower--><g id="link_Deal_Borrower"><path codeLine="90" d="M655.726,733.084 C673.79,790.821 691.12,846.206 703.596,886.08 " fill="none" id="Deal-to-Borrower" style="stroke:#181818;stroke-width:1.0;"/><polygon fill="#181818" points="705.093,890.865,706.2231,881.0812,703.6,886.0931,698.5881,883.47,705.093,890.865" style="stroke:#181818;stroke-width:1.0;"/></g><!--link Deal to Facility--><g id="link_Deal_Facility"><path codeLine="91" d="M903.132,733.084 C926.369,752.279 949.292,771.214 971.316,789.405 " fill="none" id="Deal-to-Facility" style="stroke:#181818;stroke-width:1.0;"/><polygon fill="#181818" points="975.417,792.793,971.0263,783.977,971.5623,789.6084,965.9309,790.1445,975.417,792.793" style="stroke:#181818;stroke-width:1.0;"/></g><!--link Facility to Lender--><g id="link_Facility_Lender"><path codeLine="92" d="M992.319,1102.249 C970.344,1122.22 949.005,1141.612 930.295,1158.616 " fill="none" id="Facility-to-Lender" style="stroke:#181818;stroke-width:1.0;"/><polygon fill="#181818" points="926.588,1161.984,935.9385,1158.8908,930.2881,1158.6211,930.5578,1152.9706,926.588,1161.984" style="stroke:#181818;stroke-width:1.0;"/></g><!--link Part to Facility--><g id="link_Part_Facility"><path codeLine="93" d="M1306.13,570.3 C1281.35,634.755 1249.88,716.614 1222.63,787.503 " fill="none" id="Part-to-Facility" style="stroke:#181818;stroke-width:1.0;"/><polygon fill="#181818" points="1220.67,792.587,1227.6311,785.6197,1222.4628,787.9195,1220.163,782.7512,1220.67,792.587" style="stroke:#181818;stroke-width:1.0;"/></g><!--link Part to Borrower--><g id="link_Part_Borrower"><path codeLine="94" d="M1294.12,570.307 C1260.18,627.767 1211.32,693.634 1149.5,733 C1031.13,808.377 958.744,719.009 839.5,793 C803.123,815.572 773.914,853.847 753.778,886.529 " fill="none" id="Part-to-Borrower" style="stroke:#181818;stroke-width:1.0;"/><polygon fill="#181818" points="751.121,890.895,759.2173,885.287,753.7207,886.624,752.3837,881.1274,751.121,890.895" style="stroke:#181818;stroke-width:1.0;"/></g><!--link Portfolio to Part--><g id="link_Portfolio_Part"><path codeLine="95" d="M1349.5,120.11 C1349.5,176.52 1349.5,265.57 1349.5,337.742 " fill="none" id="Portfolio-to-Part" style="stroke:#181818;stroke-width:1.0;"/><polygon fill="#181818" points="1349.5,342.909,1353.5,333.909,1349.5,337.909,1345.5,333.909,1349.5,342.909" style="stroke:#181818;stroke-width:1.0;"/></g><!--SRC=[pLR1QiCm3BtdAt9CclO7oYXiwteQOx0F66dYba1Y5zlf26F_FjknPJjsEWeTsqwD93_hIK_oghPaBDsYiaq_arJyhLBSTtj4rodZjC57RIoF2FE9hKMuHfIjqpEgEA5tp-fxiT7kFQ6KV4Ya1_rhOS0wqakqclJx5cbZrLEAS3LCBc6yfFozBZcQECHbCRE8vpsR60zbrRGDRv1DTZUQ1frkeMgG2Uxcw59mjhybru3eKd9qw8aZ7T1QIaOMGF6mdmhEyJakaMmaorodUKJyHJKeopsIHSh0ux0GGMVIrFRmlMnaxEpei9o3aoDh9i_66gv0J4oqN06YAPo4z3MYmC3jLpcafEGaGHn1ZPn6ZzELuF2Zbbsi9E1pEXa0lCd6ReKGOmZMwVK_07d2zHo4SJcAYUKWH3-JWFIu2WjExs0wdDu6yy6ym1cHQkYl9AdKOZ4kM2xNZlCrg-BYFYeWb-pIACuFS5pI_qi7Vpi9DriG81ypy_PjAZiqoGws18R4d5KfugEBKjhnb0dSEoPqwTOnufPtlWfTm8rHsUjNJCWU9kw7fxPGg9adQZMv031zml8RYGc6BPzcwswI8VEp-PKNWg9JEMH-HSFg4yeFf6q8jE0aAcTtYQmZw1Y2irYGKq9fSEV1Gs767mMn2Qf_pbQhZTQS_JPyhSKKCe6zwvnJ0lEYm098jWpIBFtV]--></g></svg>